<svg width="174" height="40" viewBox="0 0 174 40" fill="none" xmlns="http://www.w3.org/2000/svg">
<rect width="174" height="40" rx="12" fill="#A38DFC"/>
<path d="M43.3769 25H45.4616L41.4742 13.5009H38.9096L34.9387 25H37.04L37.9666 22.27H42.4504L43.3769 25ZM38.5622 20.5327L40.2002 15.718L41.8547 20.5327H38.5622ZM53.0698 12.9053V17.2402C52.3915 16.5122 51.4484 16.082 50.2902 16.082C47.7918 16.082 46.0215 18.0344 46.0215 20.6485C46.0215 23.2462 47.8415 25.1985 50.3398 25.1985C51.5642 25.1985 52.5404 24.7187 53.2188 23.8915V25H55.1711V12.9053H53.0698ZM50.6211 23.3455C49.1817 23.3455 48.1228 22.2038 48.1228 20.6485C48.1228 19.0933 49.1817 17.9516 50.6211 17.9516C52.1268 17.9516 53.1526 19.0436 53.1526 20.6485C53.1526 22.2369 52.1268 23.3455 50.6211 23.3455ZM58.3405 14.8907C59.1512 14.8907 59.7799 14.3116 59.7799 13.5009C59.7799 12.6902 59.1512 12.078 58.3405 12.078C57.5297 12.078 56.901 12.6902 56.901 13.5009C56.901 14.3116 57.5297 14.8907 58.3405 14.8907ZM57.2816 25H59.3828V16.2805H57.2816V25ZM65.6059 25.1985C67.9222 25.1985 69.3782 23.7425 69.7753 22.4189L67.8891 21.6578C67.6079 22.6505 66.7806 23.3289 65.6555 23.3289C64.2491 23.3289 63.1571 22.27 63.1571 20.6485C63.1571 19.0271 64.2491 17.9682 65.639 17.9682C66.764 17.9682 67.5582 18.6465 67.8395 19.6558L69.7257 18.9113C69.3286 17.5545 67.8726 16.0985 65.6059 16.0985C62.9751 16.0985 61.0559 18.084 61.0559 20.6651C61.0559 23.2462 63.0082 25.1985 65.6059 25.1985ZM72.2438 14.8907C73.0546 14.8907 73.6833 14.3116 73.6833 13.5009C73.6833 12.6902 73.0546 12.078 72.2438 12.078C71.4331 12.078 70.8044 12.6902 70.8044 13.5009C70.8044 14.3116 71.4331 14.8907 72.2438 14.8907ZM71.1849 25H73.2862V16.2805H71.1849V25ZM79.6085 25.1985C82.3219 25.1985 84.2578 23.2462 84.2578 20.6485C84.2578 18.0344 82.3219 16.082 79.6085 16.082C76.8785 16.082 74.9592 18.0344 74.9592 20.6485C74.9592 23.2462 76.8785 25.1985 79.6085 25.1985ZM79.625 23.3289C78.1029 23.3289 77.0605 22.2038 77.0605 20.6485C77.0605 19.0767 78.1029 17.9682 79.625 17.9682C81.1307 17.9682 82.1399 19.0767 82.1399 20.632C82.1399 22.2038 81.1141 23.3289 79.625 23.3289ZM90.6605 16.082C89.4692 16.082 88.5096 16.5618 87.9139 17.2402V16.2805H85.9285V25H88.0297V19.7551C88.0463 18.7789 88.9066 17.9682 90.0483 17.9516C91.2396 17.9516 92.0172 18.6962 92.0172 19.9536V25H94.135V19.5565C94.135 17.4884 92.8114 16.082 90.6605 16.082ZM102.911 16.2805V17.5215C102.265 16.6776 101.289 16.2144 100.032 16.2144C97.5334 16.2144 95.7134 18.0344 95.7134 20.6485C95.7134 23.2462 97.5334 25.1985 100.032 25.1985C101.289 25.1985 102.265 24.6856 102.911 23.8253V25H104.863V16.2805H102.911ZM100.313 23.3455C98.8736 23.3455 97.8147 22.2038 97.8147 20.6485C97.8147 19.0933 98.8736 17.9516 100.313 17.9516C101.819 17.9516 102.845 19.0436 102.845 20.6485C102.845 22.2369 101.819 23.3455 100.313 23.3455ZM108.959 17.2567V16.2805H106.974V25H109.075V20.0364C109.075 18.8616 110.034 18.0509 111.557 18.0509V16.082C110.465 16.082 109.555 16.5618 108.959 17.2567ZM119.692 25H121.065V23.1635H120.105C119.162 23.1635 118.649 22.6175 118.649 21.6082V18.084H120.999V16.2805H118.715V14.0138H116.664V15.3871C116.664 15.9827 116.382 16.2805 115.803 16.2805H115.009V18.084H116.531V21.8398C116.531 23.7591 117.607 25 119.692 25ZM129.005 16.2805V17.5215C128.359 16.6776 127.383 16.2144 126.126 16.2144C123.627 16.2144 121.807 18.0344 121.807 20.6485C121.807 23.2462 123.627 25.1985 126.126 25.1985C127.383 25.1985 128.359 24.6856 129.005 23.8253V25H130.957V16.2805H129.005ZM126.407 23.3455C124.968 23.3455 123.909 22.2038 123.909 20.6485C123.909 19.0933 124.968 17.9516 126.407 17.9516C127.913 17.9516 128.938 19.0436 128.938 20.6485C128.938 22.2369 127.913 23.3455 126.407 23.3455ZM135.053 17.2567V16.2805H133.067V25H135.169V20.0364C135.169 18.8616 136.128 18.0509 137.651 18.0509V16.082C136.559 16.082 135.649 16.5618 135.053 17.2567ZM140.298 21.3104H147.065C147.099 21.1284 147.115 20.7975 147.115 20.4665C147.115 18.2329 145.444 16.082 142.697 16.082C140.199 16.082 138.23 18.1171 138.23 20.6485C138.23 23.2462 140.05 25.2151 142.83 25.2151C144.948 25.2151 146.106 24.3216 146.768 23.2462L145.113 22.1873C144.716 22.9649 144.087 23.4116 142.896 23.4116C141.589 23.4116 140.58 22.6175 140.298 21.3104ZM140.298 19.8378C140.563 18.4976 141.523 17.7365 142.747 17.7365C143.971 17.7365 144.865 18.5307 145.097 19.8378H140.298ZM152.873 14.3613H153.402V12.7067H152.79C150.49 12.7067 149.266 14.0304 149.266 16.1647V16.2805H147.843V18.084H149.266V25H151.367V18.084H153.369V16.2805H151.367V15.9496C151.367 14.9569 151.913 14.3613 152.873 14.3613ZM161.206 16.2805V17.5215C160.561 16.6776 159.585 16.2144 158.327 16.2144C155.829 16.2144 154.009 18.0344 154.009 20.6485C154.009 23.2462 155.829 25.1985 158.327 25.1985C159.585 25.1985 160.561 24.6856 161.206 23.8253V25H163.159V16.2805H161.206ZM158.609 23.3455C157.169 23.3455 156.11 22.2038 156.11 20.6485C156.11 19.0933 157.169 17.9516 158.609 17.9516C160.114 17.9516 161.14 19.0436 161.14 20.6485C161.14 22.2369 160.114 23.3455 158.609 23.3455Z" fill="#F0F5FF"/>
<path fill-rule="evenodd" clip-rule="evenodd" d="M18.261 14C18.261 13.4477 17.8133 13 17.261 13C16.7088 13 16.261 13.4477 16.261 14V19.261H11C10.4477 19.261 10 19.7088 10 20.261C10 20.8133 10.4477 21.261 11 21.261H16.261V26.5217C16.261 27.074 16.7088 27.5217 17.261 27.5217C17.8133 27.5217 18.261 27.074 18.261 26.5217V21.261H23.5217C24.074 21.261 24.5217 20.8133 24.5217 20.261C24.5217 19.7088 24.074 19.261 23.5217 19.261H18.261V14Z" fill="#F0F5FF"/>
</svg>
