<?xml version="1.0" standalone="no"?>
<!DOCTYPE svg PUBLIC "-//W3C//DTD SVG 20010904//EN"
 "http://www.w3.org/TR/2001/REC-SVG-20010904/DTD/svg10.dtd">
<svg version="1.0" xmlns="http://www.w3.org/2000/svg"
 width="520.000000pt" height="106.000000pt" viewBox="0 0 520.000000 106.000000"
 preserveAspectRatio="xMidYMid meet">

<g transform="translate(0.000000,106.000000) scale(0.100000,-0.100000)"
fill="#000000" stroke="none">
<path d="M2355 1039 c-4 -6 -14 -8 -22 -5 -9 4 -21 2 -28 -4 -9 -8 -15 -8 -20
0 -4 7 -11 8 -18 1 -7 -5 -23 -11 -36 -13 -14 -1 -26 -9 -29 -17 -3 -8 0 -11
7 -7 7 5 9 1 5 -8 -3 -9 -10 -16 -16 -16 -5 0 -7 4 -4 9 10 15 -22 20 -34 5
-7 -8 -19 -14 -26 -14 -8 0 -23 -4 -34 -10 -11 -5 -29 -14 -40 -20 -11 -5 -27
-10 -35 -10 -8 0 -15 -4 -15 -10 0 -5 -9 -10 -20 -10 -11 0 -20 -4 -20 -10 0
-5 -7 -10 -15 -10 -9 0 -18 -6 -21 -14 -3 -8 -12 -12 -20 -9 -9 3 -14 -1 -14
-12 0 -9 -4 -14 -8 -11 -25 15 -108 -149 -132 -259 -11 -53 -73 -203 -111
-271 -23 -40 -27 -55 -17 -57 7 -2 27 -9 45 -14 25 -9 35 -8 44 3 6 8 16 11
23 7 17 -11 36 -12 36 -2 0 5 11 14 24 20 21 10 23 16 18 56 -3 33 -2 44 7 39
6 -4 11 -12 11 -17 0 -6 13 -30 30 -54 33 -48 95 -83 197 -111 53 -15 62 -20
67 -45 3 -18 20 -38 48 -57 54 -37 81 -45 141 -45 26 1 47 -3 47 -8 0 -17 18
-9 23 11 6 23 25 27 33 6 5 -12 8 -12 23 2 10 9 16 22 14 27 -2 6 24 10 64 10
38 0 131 6 209 14 135 13 144 13 238 -9 114 -27 185 -24 264 10 l52 22 0 52
c-1 45 -2 49 -14 33 -15 -20 -36 -23 -36 -4 0 8 -3 9 -8 1 -4 -6 -26 -16 -50
-21 -40 -10 -44 -10 -52 10 l-9 22 -7 -23 c-5 -17 -14 -22 -40 -22 -19 0 -34
5 -34 11 0 5 -3 8 -8 5 -4 -2 -43 8 -87 22 -71 24 -82 31 -102 67 -12 22 -21
41 -19 42 2 2 19 -4 39 -12 21 -8 37 -12 37 -9 0 4 7 1 15 -6 12 -10 15 -10
15 0 0 7 7 10 15 6 8 -3 15 -1 15 3 0 11 60 9 79 -3 8 -5 17 -3 23 5 7 11 11
11 15 2 2 -7 13 -23 24 -35 l19 -23 -10 28 c-5 16 -14 36 -20 46 -13 25 32 51
60 33 15 -9 19 -8 24 5 4 8 13 13 21 9 9 -3 15 0 15 8 0 19 25 27 39 13 8 -8
11 -8 11 1 0 10 5 10 21 2 19 -11 20 -9 17 26 -6 74 -100 105 -156 51 -27 -26
-28 -26 -58 -8 -16 10 -38 30 -47 45 -20 30 -43 33 -75 10 -17 -12 -35 -14
-66 -10 -32 5 -46 3 -56 -9 -7 -8 -22 -15 -35 -15 -12 0 -43 -6 -69 -14 l-46
-14 -36 44 c-33 40 -82 70 -179 109 -28 12 -95 15 -95 5 0 -15 19 -21 36 -12
20 11 56 4 48 -9 -3 -5 7 -9 22 -9 32 0 25 -12 -8 -15 -38 -4 -39 -5 -33 -16
4 -6 14 -7 24 -4 9 4 34 9 56 11 36 4 43 1 63 -26 12 -16 30 -30 40 -30 14 0
14 -2 3 -9 -12 -8 -13 -12 -1 -25 11 -14 10 -16 -3 -11 -8 4 -17 15 -20 26 -3
10 -12 19 -21 19 -21 0 -20 -9 2 -33 16 -20 16 -20 -2 -13 -21 7 -86 -11 -86
-24 0 -5 8 -14 18 -19 9 -6 14 -11 9 -11 -4 0 -16 5 -26 12 -19 12 -56 4 -47
-10 3 -5 -5 -7 -17 -5 -13 3 -29 -2 -36 -11 -11 -13 -7 -16 28 -26 22 -6 43
-15 46 -20 3 -5 -15 -2 -40 7 -25 8 -55 13 -65 10 -12 -3 -18 -1 -14 5 8 13
-116 139 -129 131 -6 -3 -7 -1 -4 4 10 16 -18 34 -39 27 -16 -5 -17 -4 -4 6
12 9 12 13 2 17 -7 3 -22 14 -32 25 -11 12 -24 17 -31 13 -8 -5 -10 -4 -5 4 5
7 -18 37 -61 77 l-68 66 75 -65 c65 -56 78 -63 92 -53 16 12 15 15 -9 34 -15
12 -33 22 -41 22 -7 0 -11 4 -7 10 3 5 -8 16 -26 25 -17 9 -29 19 -26 22 3 2
14 0 25 -6 11 -6 22 -8 26 -4 10 11 -48 35 -74 30 -23 -5 -24 -4 -5 9 18 13
16 14 -20 14 -73 -2 -83 0 -96 18 -11 14 -11 15 1 5 17 -16 44 -17 35 -3 -4 6
-3 10 2 9 21 -4 34 2 27 12 -3 6 -15 9 -25 6 -11 -3 -17 -1 -13 4 3 5 11 9 18
9 8 0 16 9 19 20 3 11 13 20 24 20 10 0 23 8 30 19 6 10 23 19 38 19 38 0 17
-13 -28 -17 -5 -1 -5 -6 -2 -11 4 -6 11 -8 16 -4 6 3 9 -2 7 -11 -6 -33 18
-26 32 10 7 19 21 37 31 40 9 3 20 12 23 20 3 8 12 15 20 15 8 0 17 6 19 13 3
7 6 8 6 1 1 -6 -17 -23 -38 -38 -22 -15 -44 -40 -51 -55 -13 -31 -5 -74 16
-92 8 -6 12 -15 9 -19 -3 -4 16 -7 43 -7 31 1 62 -5 91 -20 l44 -22 51 46 c28
25 73 58 101 74 27 16 43 29 35 29 -13 0 -13 1 0 10 20 12 6 23 -19 15 -22 -7
-29 -25 -9 -25 6 0 3 -6 -7 -14 -27 -20 -32 -14 -28 33 3 36 0 41 -18 41 -16
0 -19 -4 -14 -17 15 -33 18 -86 6 -79 -6 4 -9 12 -6 17 4 5 3 15 -2 22 -4 6
-8 17 -9 22 0 6 -2 16 -2 23 -1 8 -11 10 -29 6 -53 -11 -53 -11 -29 -56 15
-30 20 -51 15 -68 -6 -21 -7 -22 -9 -5 -1 11 -3 25 -5 30 -1 6 -3 15 -3 22 -1
7 -8 11 -14 9 -7 -1 -10 -1 -5 1 11 7 8 29 -6 41 -7 6 -18 7 -25 3 -10 -6 -9
-19 7 -58 11 -27 16 -55 12 -62 -5 -8 -11 2 -14 26 -4 21 -14 51 -22 67 -17
33 -19 39 -6 31 5 -3 16 1 24 9 8 8 17 13 19 11 2 -3 22 1 44 7 66 19 98 15
102 -11 3 -18 8 -22 25 -17 12 3 25 6 30 6 4 0 7 7 7 15 0 10 -10 15 -27 15
-14 0 -24 3 -20 6 3 4 28 6 54 6 26 -1 50 2 53 6 3 4 25 5 50 2 44 -6 43 -6
-27 -14 l-71 -8 1 -33 c1 -18 6 -30 11 -27 17 10 130 31 169 32 20 0 37 5 37
11 0 5 -4 7 -10 4 -5 -3 -10 -1 -10 5 0 7 7 10 15 7 8 -4 17 -2 20 3 3 5 -5
11 -17 13 -20 4 -19 4 5 6 18 1 27 -4 27 -14 0 -8 5 -15 11 -15 5 0 7 5 4 10
-3 6 0 10 7 10 8 0 7 4 -4 11 -26 14 -173 26 -231 18 -29 -4 -69 -5 -89 -2
-28 4 -38 2 -38 -8 0 -9 -3 -10 -11 -2 -6 6 -30 8 -57 5 -26 -2 -44 -2 -41 2
4 5 37 11 81 15 3 1 9 9 11 19 4 16 5 16 6 0 1 -14 10 -18 35 -18 19 0 37 6
39 13 4 8 6 7 6 -4 1 -13 10 -14 64 -7 75 11 70 11 132 2 28 -4 58 -7 68 -8 9
0 17 -4 17 -8 0 -4 7 -8 15 -8 29 0 115 -63 115 -84 0 -6 -7 0 -16 12 -16 23
-41 32 -27 10 4 -7 -5 -5 -19 4 -21 14 -36 16 -65 10 l-38 -8 49 -7 c27 -4 74
-21 103 -37 53 -30 68 -25 38 14 -8 11 -12 29 -9 43 5 19 2 23 -15 23 -14 0
-19 5 -15 15 4 10 0 15 -15 15 -12 0 -21 5 -21 11 0 6 -6 9 -14 6 -9 -4 -16 3
-20 15 -4 17 -8 19 -19 9 -12 -9 -16 -8 -21 5 -5 14 -9 14 -22 3 -13 -11 -18
-10 -26 5 -8 15 -12 16 -19 5 -8 -12 -10 -12 -18 0 -5 8 -14 10 -21 6 -7 -4
-16 -2 -20 6 -7 10 -11 10 -23 0 -11 -8 -17 -9 -22 -1 -5 8 -11 8 -21 -1 -11
-9 -17 -9 -29 1 -12 10 -18 10 -30 0 -12 -10 -15 -10 -15 0 0 10 -3 10 -15 0
-12 -10 -18 -10 -30 0 -12 10 -15 10 -15 0 0 -10 -4 -10 -16 1 -13 10 -17 10
-24 0 -5 -9 -10 -10 -14 -2 -9 14 -23 14 -31 0z m-95 -94 c-46 -18 -64 -17
-25 0 17 8 37 14 45 14 8 0 -1 -7 -20 -14z m415 5 c-3 -5 -10 -10 -16 -10 -5
0 -9 5 -9 10 0 6 7 10 16 10 8 0 12 -4 9 -10z m-10 -29 c-6 -5 -21 -10 -35
-11 -42 -4 -47 2 -10 10 52 11 55 11 45 1z m-97 -12 c-2 -6 -7 -10 -11 -10 -4
1 -15 1 -24 2 -15 0 -15 2 2 9 28 12 37 12 33 -1z m-370 -50 c-22 -17 -26 -24
-18 -39 6 -10 10 -25 10 -32 -1 -7 -7 2 -16 21 -8 19 -13 35 -12 36 60 40 84
50 36 14z m-349 -218 c-14 -5 -36 -14 -50 -20 l-24 -12 24 20 c13 12 35 21 50
20 l26 -1 -26 -7z m-34 -64 c-17 -13 -15 -14 15 -21 42 -8 64 9 29 23 -13 5
-18 10 -10 10 20 1 51 -29 51 -48 0 -14 -2 -14 -10 -1 -11 18 -25 7 -17 -14 7
-17 36 -11 49 8 6 8 8 8 8 0 0 -13 -58 -102 -73 -111 -7 -4 -5 4 4 18 18 26
15 79 -3 79 -6 0 -7 -11 -3 -27 l7 -28 -26 29 c-21 26 -27 28 -41 16 -14 -11
-16 -11 -13 1 2 8 -3 13 -10 11 -8 -1 -11 2 -6 10 13 24 47 58 58 58 5 0 2 -6
-9 -13z m-8 -93 c12 -3 24 -13 27 -21 3 -8 1 -11 -4 -8 -6 3 -22 13 -38 21
-28 14 -22 18 15 8z m1128 -15 c5 -5 -5 -4 -23 2 -17 6 -32 13 -32 16 0 7 43
-8 55 -18z m-1140 -19 c7 0 15 -7 19 -15 5 -13 1 -13 -27 1 -37 19 -50 30 -24
21 10 -4 25 -7 32 -7z m1285 -5 c25 -14 25 -14 3 -15 -13 0 -23 5 -23 10 0 6
-9 10 -21 10 -13 0 -18 -4 -13 -12 4 -7 3 -8 -5 -4 -6 4 -9 12 -6 17 9 13 36
11 65 -6z m-193 -11 c-3 -3 -12 -4 -19 -1 -8 3 -5 6 6 6 11 1 17 -2 13 -5z
m-112 -14 c-11 -5 -29 -8 -40 -8 -16 0 -15 2 5 8 34 11 60 11 35 0z m-981 -19
c3 -4 -11 -5 -30 -3 -18 2 -32 8 -29 12 5 8 53 1 59 -9z m1376 9 c0 -5 -5 -10
-11 -10 -5 0 -7 5 -4 10 3 6 8 10 11 10 2 0 4 -4 4 -10z m-1410 -35 c0 -1 -9
-5 -19 -8 -13 -3 -18 -1 -14 9 4 10 33 10 33 -1z m30 -10 c11 -13 10 -14 -4
-9 -9 3 -16 10 -16 15 0 13 6 11 20 -6z m1003 -12 c3 -5 -21 -9 -52 -9 -40 -1
-49 0 -31 6 33 11 78 12 83 3z m150 -20 c-7 -2 -19 -2 -25 0 -7 3 -2 5 12 5
14 0 19 -2 13 -5z m-714 -39 c-30 -9 -59 -27 -78 -49 -33 -38 -43 -36 -13 3
27 35 74 62 107 61 26 0 24 -2 -16 -15z m66 -36 c14 -12 25 -26 25 -32 0 -8
-2 -8 -8 0 -4 5 -16 11 -27 11 -44 3 -65 8 -65 16 0 5 6 7 13 4 6 -2 23 -7 37
-11 l25 -7 -25 20 c-14 11 -19 21 -13 21 7 0 24 -10 38 -22z m49 -10 c-3 -4 0
-17 6 -28 8 -14 8 -20 0 -20 -6 0 -2 -14 10 -30 12 -17 26 -28 31 -25 12 8 12
88 -1 103 -5 7 -2 5 7 -3 17 -14 18 -34 10 -117 -1 -20 -12 -23 -22 -8 -3 6
-26 10 -51 10 -24 0 -44 4 -44 8 0 5 15 7 34 6 29 -3 33 0 29 17 -3 10 -9 22
-14 24 -4 3 -6 12 -3 19 3 8 -2 28 -11 45 -15 31 -15 31 4 19 11 -6 18 -16 15
-20z m255 -114 l23 -39 -26 28 c-27 30 -46 85 -45 132 1 21 5 14 13 -26 7 -31
23 -74 35 -95z m169 7 c18 -8 31 -16 28 -18 -13 -13 -129 66 -147 100 -7 13 7
4 37 -23 27 -25 64 -52 82 -59z m-438 29 c13 -8 13 -10 -2 -10 -9 0 -20 5 -23
10 -8 13 5 13 25 0z m38 -67 c-10 -2 -28 -2 -40 0 -13 2 -5 4 17 4 22 1 32 -1
23 -4z"/>
<path d="M1780 540 c0 -6 6 -10 13 -9 6 1 20 -1 30 -6 20 -9 32 -1 22 14 -8
14 -65 14 -65 1z"/>
<path d="M1885 499 c-11 -17 1 -21 15 -4 8 9 8 15 2 15 -6 0 -14 -5 -17 -11z"/>
<path d="M2806 925 c10 -8 24 -14 29 -14 6 0 1 6 -9 14 -11 8 -24 15 -30 15
-5 0 -1 -7 10 -15z"/>
<path d="M2010 855 c0 -8 5 -15 10 -15 6 0 10 7 10 15 0 8 -4 15 -10 15 -5 0
-10 -7 -10 -15z"/>
<path d="M1975 850 c-3 -5 -2 -10 4 -10 5 0 13 5 16 10 3 6 2 10 -4 10 -5 0
-13 -4 -16 -10z"/>
<path d="M1970 820 c0 -15 13 -19 31 -10 14 8 19 6 24 -9 3 -11 13 -25 23 -33
15 -12 15 -11 -1 14 -10 16 -13 29 -7 33 6 3 10 0 10 -8 0 -8 11 -22 25 -31
14 -9 25 -12 25 -6 0 5 -4 10 -10 10 -5 0 -12 11 -16 24 -5 21 -11 23 -55 23
-27 0 -49 -3 -49 -7z"/>
<path d="M1990 790 c0 -5 7 -10 16 -10 8 0 12 5 9 10 -3 6 -10 10 -16 10 -5 0
-9 -4 -9 -10z"/>
<path d="M2077 749 c7 -7 15 -10 18 -7 3 3 -2 9 -12 12 -14 6 -15 5 -6 -5z"/>
<path d="M2140 741 c-26 -5 -30 -8 -18 -13 24 -10 93 2 76 13 -7 5 -15 8 -18
8 -3 -1 -21 -4 -40 -8z"/>
<path d="M2105 710 c-3 -4 1 -13 9 -19 10 -8 16 -8 25 3 9 11 7 15 -9 19 -11
3 -22 2 -25 -3z"/>
<path d="M2165 710 c3 -5 15 -10 26 -10 11 0 17 5 14 10 -3 6 -15 10 -26 10
-11 0 -17 -4 -14 -10z"/>
<path d="M2225 710 c3 -5 15 -10 26 -10 11 0 17 5 14 10 -3 6 -15 10 -26 10
-11 0 -17 -4 -14 -10z"/>
<path d="M2140 681 c0 -5 6 -13 13 -19 15 -13 42 1 33 17 -8 13 -46 15 -46 2z"/>
<path d="M2235 664 c17 -13 35 -24 41 -24 7 0 14 -7 18 -15 3 -8 16 -15 28
-15 l23 0 -25 20 -25 20 23 0 c13 0 21 -4 18 -9 -9 -13 22 -22 51 -15 25 7 25
7 -13 26 -21 10 -44 16 -51 14 -7 -3 -12 0 -10 7 1 8 -16 12 -53 13 l-54 2 29
-24z m65 -5 c0 -11 -3 -11 -24 -3 -23 9 -20 23 4 17 11 -3 20 -9 20 -14z"/>
<path d="M2187 653 c-12 -11 13 -31 33 -26 24 6 26 19 4 27 -20 8 -29 8 -37
-1z"/>
<path d="M2230 620 c-22 -13 -5 -23 27 -16 21 6 24 9 12 17 -18 11 -20 11 -39
-1z"/>
<path d="M2145 601 c-3 -5 -1 -12 5 -16 13 -8 50 3 50 16 0 12 -47 12 -55 0z"/>
<path d="M2337 604 c-11 -11 3 -24 18 -18 8 4 12 10 9 15 -6 11 -18 12 -27 3z"/>
<path d="M2261 591 c-19 -12 -1 -20 32 -14 21 4 25 8 15 14 -17 11 -29 11 -47
0z"/>
<path d="M2190 580 c-13 -8 -10 -14 15 -35 17 -13 35 -22 42 -20 7 2 10 -1 8
-8 -2 -7 11 -29 29 -51 30 -35 35 -37 54 -25 26 16 24 30 -7 45 -12 6 -21 14
-19 16 5 8 -46 58 -58 58 -7 0 -14 7 -18 15 -6 17 -24 19 -46 5z"/>
<path d="M2410 580 c0 -5 9 -10 20 -10 11 0 20 5 20 10 0 6 -9 10 -20 10 -11
0 -20 -4 -20 -10z"/>
<path d="M2360 572 c0 -14 11 -21 26 -15 21 8 17 23 -6 23 -11 0 -20 -4 -20
-8z"/>
<path d="M2283 558 c2 -7 9 -13 15 -12 7 1 21 2 32 3 35 2 21 21 -16 21 -24 0
-34 -4 -31 -12z"/>
<path d="M2390 542 c0 -14 11 -21 26 -15 21 8 17 23 -6 23 -11 0 -20 -4 -20
-8z"/>
<path d="M2520 544 c0 -12 35 -33 54 -34 18 0 18 1 1 20 -17 19 -55 28 -55 14z"/>
<path d="M2310 531 c0 -6 5 -13 11 -16 15 -10 61 4 54 15 -8 13 -65 13 -65 1z"/>
<path d="M2476 531 c-9 -14 19 -32 38 -25 13 5 14 9 5 20 -13 16 -35 18 -43 5z"/>
<path d="M2425 519 c-11 -16 27 -40 43 -27 9 8 9 14 1 24 -14 17 -35 18 -44 3z"/>
<path d="M2354 499 c-3 -6 1 -18 9 -27 14 -13 21 -14 44 -3 27 12 27 13 8 27
-23 17 -51 18 -61 3z"/>
<path d="M2510 491 c0 -16 27 -31 44 -25 13 5 14 9 5 20 -13 15 -49 19 -49 5z"/>
<path d="M2476 481 c-7 -11 3 -41 13 -41 18 0 30 24 20 37 -13 15 -26 17 -33
4z"/>
<path d="M2418 463 c-10 -2 -18 -8 -18 -12 0 -4 8 -15 18 -24 15 -13 20 -14
36 -2 16 12 17 17 6 30 -7 8 -15 14 -19 14 -3 -1 -14 -3 -23 -6z"/>
<path d="M2342 433 c-10 -4 -8 -11 8 -29 21 -21 24 -22 46 -7 23 15 23 16 7
29 -19 14 -39 16 -61 7z"/>
<path d="M3232 360 c0 -14 2 -19 5 -12 2 6 2 18 0 25 -3 6 -5 1 -5 -13z"/>
</g>
</svg>
