<svg width="304" height="120" viewBox="0 0 304 120" fill="none" xmlns="http://www.w3.org/2000/svg">
<path d="M9.64795 95.27L6.98795 102.914L4.32795 95.27H2.46595L5.89595 105H8.07995L11.51 95.27H9.64795ZM15.2311 105.168C17.5271 105.168 19.1651 103.516 19.1651 101.318C19.1651 99.106 17.5271 97.454 15.2311 97.454C12.9211 97.454 11.2971 99.106 11.2971 101.318C11.2971 103.516 12.9211 105.168 15.2311 105.168ZM15.2451 103.586C13.9571 103.586 13.0751 102.634 13.0751 101.318C13.0751 99.988 13.9571 99.05 15.2451 99.05C16.5191 99.05 17.3731 99.988 17.3731 101.304C17.3731 102.634 16.5051 103.586 15.2451 103.586ZM24.0508 105.168C26.0108 105.168 27.2428 103.936 27.5788 102.816L25.9828 102.172C25.7448 103.012 25.0448 103.586 24.0928 103.586C22.9028 103.586 21.9788 102.69 21.9788 101.318C21.9788 99.946 22.9028 99.05 24.0788 99.05C25.0308 99.05 25.7028 99.624 25.9408 100.478L27.5368 99.848C27.2008 98.7 25.9688 97.468 24.0508 97.468C21.8248 97.468 20.2008 99.148 20.2008 101.332C20.2008 103.516 21.8528 105.168 24.0508 105.168ZM32.1735 95.102L33.2515 96.558H34.8195L32.9575 93.996H31.4315L29.5275 96.558H31.0955L32.1735 95.102ZM30.1015 101.878H35.8275C35.8555 101.724 35.8695 101.444 35.8695 101.164C35.8695 99.274 34.4555 97.454 32.1315 97.454C30.0175 97.454 28.3515 99.176 28.3515 101.318C28.3515 103.516 29.8915 105.182 32.2435 105.182C34.0355 105.182 35.0155 104.426 35.5755 103.516L34.1755 102.62C33.8395 103.278 33.3075 103.656 32.2995 103.656C31.1935 103.656 30.3395 102.984 30.1015 101.878ZM30.1015 100.632C30.3255 99.498 31.1375 98.854 32.1735 98.854C33.2095 98.854 33.9655 99.526 34.1615 100.632H30.1015ZM45.9608 97.622V98.672C45.4148 97.958 44.5888 97.566 43.5248 97.566C41.4108 97.566 39.8708 99.106 39.8708 101.318C39.8708 103.516 41.4108 105.168 43.5248 105.168C44.5888 105.168 45.4148 104.734 45.9608 104.006V105H47.6128V97.622H45.9608ZM43.7628 103.6C42.5448 103.6 41.6488 102.634 41.6488 101.318C41.6488 100.002 42.5448 99.036 43.7628 99.036C45.0368 99.036 45.9048 99.96 45.9048 101.318C45.9048 102.662 45.0368 103.6 43.7628 103.6ZM50.2945 96.446C50.9805 96.446 51.5125 95.956 51.5125 95.27C51.5125 94.584 50.9805 94.066 50.2945 94.066C49.6085 94.066 49.0765 94.584 49.0765 95.27C49.0765 95.956 49.6085 96.446 50.2945 96.446ZM49.3985 105H51.1765V97.622H49.3985V105ZM56.9742 97.454C55.9662 97.454 55.1542 97.86 54.6502 98.434V97.622H52.9702V105H54.7482V100.562C54.7622 99.736 55.4902 99.05 56.4562 99.036C57.4642 99.036 58.1222 99.666 58.1222 100.73V105H59.9142V100.394C59.9142 98.644 58.7942 97.454 56.9742 97.454ZM67.2138 94.766V98.434C66.6398 97.818 65.8418 97.454 64.8618 97.454C62.7478 97.454 61.2498 99.106 61.2498 101.318C61.2498 103.516 62.7898 105.168 64.9038 105.168C65.9398 105.168 66.7658 104.762 67.3398 104.062V105H68.9918V94.766H67.2138ZM65.1418 103.6C63.9238 103.6 63.0278 102.634 63.0278 101.318C63.0278 100.002 63.9238 99.036 65.1418 99.036C66.4158 99.036 67.2838 99.96 67.2838 101.318C67.2838 102.662 66.4158 103.6 65.1418 103.6ZM76.4895 97.622V98.672C75.9435 97.958 75.1175 97.566 74.0535 97.566C71.9395 97.566 70.3995 99.106 70.3995 101.318C70.3995 103.516 71.9395 105.168 74.0535 105.168C75.1175 105.168 75.9435 104.734 76.4895 104.006V105H78.1415V97.622H76.4895ZM74.2915 103.6C73.0735 103.6 72.1775 102.634 72.1775 101.318C72.1775 100.002 73.0735 99.036 74.2915 99.036C75.5655 99.036 76.4335 99.96 76.4335 101.318C76.4335 102.662 75.5655 103.6 74.2915 103.6ZM86.9561 97.454C85.9481 97.454 85.1361 97.86 84.6321 98.434V97.622H82.9521V105H84.7301V100.562C84.7441 99.736 85.4721 99.05 86.4381 99.036C87.4461 99.036 88.1041 99.666 88.1041 100.73V105H89.8961V100.394C89.8961 98.644 88.7761 97.454 86.9561 97.454ZM94.5636 95.648C95.1656 95.648 95.4596 96.334 96.3556 96.334C97.3496 96.334 97.7976 95.536 97.9936 94.766L96.7616 94.234C96.6776 94.626 96.4256 94.864 96.0756 94.864C95.4316 94.864 95.1656 94.178 94.2976 94.178C93.3036 94.178 92.8276 95.018 92.6456 95.746L93.8776 96.264C93.9616 95.886 94.2136 95.648 94.5636 95.648ZM97.3216 97.622V98.672C96.7756 97.958 95.9496 97.566 94.8856 97.566C92.7716 97.566 91.2316 99.106 91.2316 101.318C91.2316 103.516 92.7716 105.168 94.8856 105.168C95.9496 105.168 96.7756 104.734 97.3216 104.006V105H98.9736V97.622H97.3216ZM95.1236 103.6C93.9056 103.6 93.0096 102.634 93.0096 101.318C93.0096 100.002 93.9056 99.036 95.1236 99.036C96.3976 99.036 97.2656 99.96 97.2656 101.318C97.2656 102.662 96.3976 103.6 95.1236 103.6ZM104.315 105.168C106.611 105.168 108.249 103.516 108.249 101.318C108.249 99.106 106.611 97.454 104.315 97.454C102.005 97.454 100.381 99.106 100.381 101.318C100.381 103.516 102.005 105.168 104.315 105.168ZM104.329 103.586C103.041 103.586 102.159 102.634 102.159 101.318C102.159 99.988 103.041 99.05 104.329 99.05C105.603 99.05 106.457 99.988 106.457 101.304C106.457 102.634 105.589 103.586 104.329 103.586ZM116.818 97.454C115.768 97.454 114.914 97.874 114.34 98.588V97.622H112.688V107.506H114.466V104.216C115.026 104.818 115.81 105.168 116.776 105.168C118.89 105.168 120.43 103.516 120.43 101.318C120.43 99.106 118.932 97.454 116.818 97.454ZM116.538 103.6C115.264 103.6 114.396 102.662 114.396 101.318C114.396 99.974 115.264 99.036 116.538 99.036C117.756 99.036 118.652 100.002 118.652 101.318C118.652 102.62 117.756 103.6 116.538 103.6ZM125.394 105.168C127.69 105.168 129.328 103.516 129.328 101.318C129.328 99.106 127.69 97.454 125.394 97.454C123.084 97.454 121.46 99.106 121.46 101.318C121.46 103.516 123.084 105.168 125.394 105.168ZM125.408 103.586C124.12 103.586 123.238 102.634 123.238 101.318C123.238 99.988 124.12 99.05 125.408 99.05C126.682 99.05 127.536 99.988 127.536 101.304C127.536 102.634 126.668 103.586 125.408 103.586ZM133.304 105.168C135.152 105.168 136.356 104.3 136.356 102.83C136.356 100.128 132.31 100.898 132.31 99.554C132.31 99.106 132.66 98.826 133.318 98.826C133.934 98.826 134.368 99.092 134.564 99.652L136.118 99.05C135.81 98.042 134.774 97.454 133.346 97.454C131.61 97.454 130.49 98.294 130.49 99.638C130.49 102.172 134.536 101.5 134.536 102.956C134.536 103.474 134.088 103.768 133.374 103.768C132.478 103.768 131.904 103.362 131.694 102.676L130.14 103.278C130.546 104.524 131.708 105.168 133.304 105.168ZM140.294 105.168C142.142 105.168 143.346 104.3 143.346 102.83C143.346 100.128 139.3 100.898 139.3 99.554C139.3 99.106 139.65 98.826 140.308 98.826C140.924 98.826 141.358 99.092 141.554 99.652L143.108 99.05C142.8 98.042 141.764 97.454 140.336 97.454C138.6 97.454 137.48 98.294 137.48 99.638C137.48 102.172 141.526 101.5 141.526 102.956C141.526 103.474 141.078 103.768 140.364 103.768C139.468 103.768 138.894 103.362 138.684 102.676L137.13 103.278C137.536 104.524 138.698 105.168 140.294 105.168ZM149.635 97.622V102.088C149.635 102.9 148.991 103.572 147.997 103.586C147.003 103.586 146.373 102.928 146.373 101.976V97.622H144.595V102.2C144.595 103.908 145.603 105.168 147.479 105.168C148.431 105.168 149.229 104.762 149.747 104.188V105H151.413V97.622H149.635ZM154.096 96.446C154.782 96.446 155.314 95.956 155.314 95.27C155.314 94.584 154.782 94.066 154.096 94.066C153.41 94.066 152.878 94.584 152.878 95.27C152.878 95.956 153.41 96.446 154.096 96.446ZM153.2 105H154.978V97.622H153.2V105ZM162.786 105H163.948V103.446H163.136C162.338 103.446 161.904 102.984 161.904 102.13V99.148H163.892V97.622H161.96V95.704H160.224V96.866C160.224 97.37 159.986 97.622 159.496 97.622H158.824V99.148H160.112V102.326C160.112 103.95 161.022 105 162.786 105ZM170.666 97.622V98.672C170.12 97.958 169.294 97.566 168.23 97.566C166.116 97.566 164.576 99.106 164.576 101.318C164.576 103.516 166.116 105.168 168.23 105.168C169.294 105.168 170.12 104.734 170.666 104.006V105H172.318V97.622H170.666ZM168.468 103.6C167.25 103.6 166.354 102.634 166.354 101.318C166.354 100.002 167.25 99.036 168.468 99.036C169.742 99.036 170.61 99.96 170.61 101.318C170.61 102.662 169.742 103.6 168.468 103.6ZM175.784 98.448V97.622H174.104V105H175.882V100.8C175.882 99.806 176.694 99.12 177.982 99.12V97.454C177.058 97.454 176.288 97.86 175.784 98.448ZM180.223 101.878H185.949C185.977 101.724 185.991 101.444 185.991 101.164C185.991 99.274 184.577 97.454 182.253 97.454C180.139 97.454 178.473 99.176 178.473 101.318C178.473 103.516 180.013 105.182 182.365 105.182C184.157 105.182 185.137 104.426 185.697 103.516L184.297 102.62C183.961 103.278 183.429 103.656 182.421 103.656C181.315 103.656 180.461 102.984 180.223 101.878ZM180.223 100.632C180.447 99.498 181.259 98.854 182.295 98.854C183.331 98.854 184.087 99.526 184.283 100.632H180.223ZM190.863 95.998H191.311V94.598H190.793C188.847 94.598 187.811 95.718 187.811 97.524V97.622H186.607V99.148H187.811V105H189.589V99.148H191.283V97.622H189.589V97.342C189.589 96.502 190.051 95.998 190.863 95.998ZM197.914 97.622V98.672C197.368 97.958 196.542 97.566 195.478 97.566C193.364 97.566 191.824 99.106 191.824 101.318C191.824 103.516 193.364 105.168 195.478 105.168C196.542 105.168 197.368 104.734 197.914 104.006V105H199.566V97.622H197.914ZM195.716 103.6C194.498 103.6 193.602 102.634 193.602 101.318C193.602 100.002 194.498 99.036 195.716 99.036C196.99 99.036 197.858 99.96 197.858 101.318C197.858 102.662 196.99 103.6 195.716 103.6ZM203.956 105.168C205.804 105.168 207.008 104.3 207.008 102.83C207.008 100.128 202.962 100.898 202.962 99.554C202.962 99.106 203.312 98.826 203.97 98.826C204.586 98.826 205.02 99.092 205.216 99.652L206.77 99.05C206.462 98.042 205.426 97.454 203.998 97.454C202.262 97.454 201.142 98.294 201.142 99.638C201.142 102.172 205.188 101.5 205.188 102.956C205.188 103.474 204.74 103.768 204.026 103.768C203.13 103.768 202.556 103.362 202.346 102.676L200.792 103.278C201.198 104.524 202.36 105.168 203.956 105.168ZM214.838 105.168C216.798 105.168 218.03 103.936 218.366 102.816L216.77 102.172C216.532 103.012 215.832 103.586 214.88 103.586C213.69 103.586 212.766 102.69 212.766 101.318C212.766 99.946 213.69 99.05 214.866 99.05C215.818 99.05 216.49 99.624 216.728 100.478L218.324 99.848C217.988 98.7 216.756 97.468 214.838 97.468C212.612 97.468 210.988 99.148 210.988 101.332C210.988 103.516 212.64 105.168 214.838 105.168ZM225.271 97.622V98.672C224.725 97.958 223.899 97.566 222.835 97.566C220.721 97.566 219.181 99.106 219.181 101.318C219.181 103.516 220.721 105.168 222.835 105.168C223.899 105.168 224.725 104.734 225.271 104.006V105H226.923V97.622H225.271ZM223.073 103.6C221.855 103.6 220.959 102.634 220.959 101.318C220.959 100.002 221.855 99.036 223.073 99.036C224.347 99.036 225.215 99.96 225.215 101.318C225.215 102.662 224.347 103.6 223.073 103.6ZM234.294 94.766V98.434C233.72 97.818 232.922 97.454 231.942 97.454C229.828 97.454 228.33 99.106 228.33 101.318C228.33 103.516 229.87 105.168 231.984 105.168C233.02 105.168 233.846 104.762 234.42 104.062V105H236.072V94.766H234.294ZM232.222 103.6C231.004 103.6 230.108 102.634 230.108 101.318C230.108 100.002 231.004 99.036 232.222 99.036C233.496 99.036 234.364 99.96 234.364 101.318C234.364 102.662 233.496 103.6 232.222 103.6ZM243.57 97.622V98.672C243.024 97.958 242.198 97.566 241.134 97.566C239.02 97.566 237.48 99.106 237.48 101.318C237.48 103.516 239.02 105.168 241.134 105.168C242.198 105.168 243.024 104.734 243.57 104.006V105H245.222V97.622H243.57ZM241.372 103.6C240.154 103.6 239.258 102.634 239.258 101.318C239.258 100.002 240.154 99.036 241.372 99.036C242.646 99.036 243.514 99.96 243.514 101.318C243.514 102.662 242.646 103.6 241.372 103.6ZM249.612 105.168C251.46 105.168 252.664 104.3 252.664 102.83C252.664 100.128 248.618 100.898 248.618 99.554C248.618 99.106 248.968 98.826 249.626 98.826C250.242 98.826 250.676 99.092 250.872 99.652L252.426 99.05C252.118 98.042 251.082 97.454 249.654 97.454C247.918 97.454 246.798 98.294 246.798 99.638C246.798 102.172 250.844 101.5 250.844 102.956C250.844 103.474 250.396 103.768 249.682 103.768C248.786 103.768 248.212 103.362 248.002 102.676L246.448 103.278C246.854 104.524 248.016 105.168 249.612 105.168ZM257.165 105H258.327V103.446H257.515C256.717 103.446 256.283 102.984 256.283 102.13V99.148H258.271V97.622H256.339V95.704H254.603V96.866C254.603 97.37 254.365 97.622 253.875 97.622H253.203V99.148H254.491V102.326C254.491 103.95 255.401 105 257.165 105ZM261.177 98.448V97.622H259.497V105H261.275V100.8C261.275 99.806 262.087 99.12 263.375 99.12V97.454C262.451 97.454 261.681 97.86 261.177 98.448ZM269.997 97.622V98.672C269.451 97.958 268.625 97.566 267.561 97.566C265.447 97.566 263.907 99.106 263.907 101.318C263.907 103.516 265.447 105.168 267.561 105.168C268.625 105.168 269.451 104.734 269.997 104.006V105H271.649V97.622H269.997ZM267.799 103.6C266.581 103.6 265.685 102.634 265.685 101.318C265.685 100.002 266.581 99.036 267.799 99.036C269.073 99.036 269.941 99.96 269.941 101.318C269.941 102.662 269.073 103.6 267.799 103.6ZM279.021 94.766V98.434C278.447 97.818 277.649 97.454 276.669 97.454C274.555 97.454 273.057 99.106 273.057 101.318C273.057 103.516 274.597 105.168 276.711 105.168C277.747 105.168 278.573 104.762 279.147 104.062V105H280.799V94.766H279.021ZM276.949 103.6C275.731 103.6 274.835 102.634 274.835 101.318C274.835 100.002 275.731 99.036 276.949 99.036C278.223 99.036 279.091 99.96 279.091 101.318C279.091 102.662 278.223 103.6 276.949 103.6ZM288.297 97.622V98.672C287.751 97.958 286.925 97.566 285.861 97.566C283.747 97.566 282.207 99.106 282.207 101.318C282.207 103.516 283.747 105.168 285.861 105.168C286.925 105.168 287.751 104.734 288.297 104.006V105H289.949V97.622H288.297ZM286.099 103.6C284.881 103.6 283.985 102.634 283.985 101.318C283.985 100.002 284.881 99.036 286.099 99.036C287.373 99.036 288.241 99.96 288.241 101.318C288.241 102.662 287.373 103.6 286.099 103.6ZM294.339 105.168C296.187 105.168 297.391 104.3 297.391 102.83C297.391 100.128 293.345 100.898 293.345 99.554C293.345 99.106 293.695 98.826 294.353 98.826C294.969 98.826 295.403 99.092 295.599 99.652L297.153 99.05C296.845 98.042 295.809 97.454 294.381 97.454C292.645 97.454 291.525 98.294 291.525 99.638C291.525 102.172 295.571 101.5 295.571 102.956C295.571 103.474 295.123 103.768 294.409 103.768C293.513 103.768 292.939 103.362 292.729 102.676L291.175 103.278C291.581 104.524 292.743 105.168 294.339 105.168ZM299.018 101.766H300.446L300.768 94.766H298.724L299.018 101.766ZM299.746 105.14C300.348 105.14 300.796 104.678 300.796 104.104C300.796 103.488 300.348 103.04 299.746 103.04C299.144 103.04 298.696 103.488 298.696 104.104C298.696 104.678 299.144 105.14 299.746 105.14Z" fill="#5E49FF"/>
<path d="M30.6812 21.6954H48.9082V16.692H30.6812V21.6954ZM62.4398 63.4508H68.0389L56.4237 18.1215H50.8841L62.4398 63.4508ZM72.0023 66.9651H100.057V61.8425H72.0023V66.9651ZM117.24 67.2032L121.35 63.0936C115.095 58.1495 110.569 50.8229 110.569 40.4585C110.569 30.0942 115.095 22.8272 121.35 17.8237L117.24 13.7137C110.211 18.9554 104.552 27.9498 104.552 40.4585C104.552 52.9672 110.211 61.9616 117.24 67.2032ZM149.532 15.6794L144.946 17.228C146.435 20.3255 149.83 29.5581 150.782 32.9533L155.429 31.3451C154.416 28.0094 150.842 18.5385 149.532 15.6794ZM175.979 19.4915L170.499 17.9428C169.308 26.8777 165.674 36.4081 160.968 42.4242C154.952 50.0485 146.077 55.7668 137.559 58.2686L141.669 62.4382C150.068 59.4599 158.884 53.3246 165.019 45.2237C169.903 38.7907 173.119 30.2729 174.906 22.8867C175.145 21.9337 175.562 20.5041 175.979 19.4915ZM132.913 19.2533L128.207 20.9806C129.637 23.542 133.747 33.6085 134.879 37.3016L139.584 35.5742C138.214 31.7024 134.462 22.5889 132.913 19.2533ZM186.998 67.2032C194.087 61.9616 199.686 52.9672 199.686 40.4585C199.686 27.9498 194.087 18.9554 186.998 13.7137L182.888 17.8237C189.203 22.8272 193.67 30.0942 193.67 40.4585C193.67 50.8229 189.203 58.1495 182.888 63.0936L186.998 67.2032ZM204.161 66.9651H232.216V61.8425H204.161V66.9651ZM236.294 63.4508H241.893L253.27 18.1215H247.79L236.294 63.4508ZM257.653 21.6954H275.88V16.692H257.653V21.6954Z" fill="#5E49FF"/>
</svg>
